<svg xmlns="http://www.w3.org/2000/svg" version="1.1" xmlns:xlink="http://www.w3.org/1999/xlink" width="1000" height="1000"><style>
    #light-icon {
      display: inline;
    }
    #dark-icon {
      display: none;
    }

    @media (prefers-color-scheme: dark) {
      #light-icon {
        display: none;
      }
      #dark-icon {
        display: inline;
      }
    }
  </style><g id="light-icon"><svg xmlns="http://www.w3.org/2000/svg" version="1.1" xmlns:xlink="http://www.w3.org/1999/xlink" width="1000" height="1000"><g><g transform="matrix(7.407407407407407,0,0,7.407407407407407,0,392.5925925925926)"><svg xmlns="http://www.w3.org/2000/svg" width="135" height="29" fill="none"><path d="M130.547 28.926c-.997 0-1.791-.296-2.384-.889-.592-.62-.889-1.4-.889-2.343 0-1.266.404-2.303 1.212-3.11.808-.836 1.805-1.253 2.99-1.253.969 0 1.75.296 2.343.889.593.592.889 1.36.889 2.302 0 1.24-.404 2.29-1.212 3.152-.808.834-1.791 1.252-2.949 1.252zM115.468 28.522a.546.546 0 01-.404-.162c-.081-.107-.108-.256-.081-.444l1.091-8.888c0-.162-.014-.27-.041-.323L110.256 1.05a.563.563 0 01-.04-.242c0-.323.175-.485.525-.485h6.747c.35 0 .565.162.646.485l2.505 9.575c.054.107.107.161.161.161.081 0 .135-.054.162-.161L125.81.808c.161-.323.417-.485.767-.485h6.788c.323 0 .484.121.484.364 0 .108-.04.229-.121.363l-10.221 17.655c-.081.161-.121.27-.121.323l-1.091 8.888a.668.668 0 01-.242.444.55.55 0 01-.404.162h-6.181zM102.855.323c2.559 0 4.578.714 6.06 2.141 1.481 1.4 2.222 3.313 2.222 5.737 0 .62-.027 1.09-.081 1.414-.216 1.804-.822 3.393-1.818 4.767-.97 1.374-2.235 2.438-3.798 3.192-1.535.754-3.258 1.13-5.171 1.13h-4.12c-.135 0-.23.082-.283.243l-1.091 9.05a.665.665 0 01-.242.444c-.108.108-.256.162-.445.162h-6.18c-.19 0-.338-.054-.445-.162-.081-.108-.108-.256-.081-.444L90.735.929a.76.76 0 01.202-.444c.108-.108.256-.162.445-.162h11.473zm-2.707 12.322c1.024 0 1.872-.296 2.545-.889.701-.62 1.051-1.414 1.051-2.383 0-.781-.27-1.4-.808-1.859-.512-.458-1.212-.687-2.101-.687h-3.232c-.135 0-.229.081-.283.243l-.646 5.332c0 .162.067.243.202.243h3.272zM79.356 28.603c-.324 0-.526-.149-.606-.445l-3.03-10.22c-.054-.135-.149-.203-.283-.203h-1.535c-.135 0-.23.081-.283.243l-1.212 10.019a.665.665 0 01-.243.444c-.107.108-.255.162-.444.162h-6.181c-.189 0-.337-.054-.444-.162-.081-.108-.108-.256-.081-.444L68.367.929a.76.76 0 01.202-.444c.108-.108.256-.162.444-.162h11.878c2.424 0 4.35.687 5.777 2.06 1.427 1.374 2.14 3.232 2.14 5.576 0 .269-.026.727-.08 1.373-.215 1.778-.835 3.34-1.858 4.686a8.76 8.76 0 01-3.838 2.91.243.243 0 00-.162.16.172.172 0 000 .162l3.636 10.625c.027.054.04.135.04.243a.502.502 0 01-.161.363c-.108.081-.256.122-.444.122h-6.585zM75.235 6.827c-.135 0-.23.081-.283.243l-.566 4.646c0 .161.068.242.202.242h3.636c.916 0 1.67-.27 2.263-.808.62-.539.929-1.239.929-2.1 0-.674-.243-1.213-.727-1.617-.458-.404-1.064-.606-1.818-.606h-3.636zM52.948 28.926c-2.935 0-5.265-.781-6.989-2.343-1.724-1.562-2.585-3.677-2.585-6.343 0-.323.027-.808.08-1.454L45.677.929a.76.76 0 01.202-.444c.108-.108.256-.162.445-.162h6.18c.19 0 .324.054.405.162.108.108.148.256.121.444l-2.182 17.857c-.026.134-.04.35-.04.646 0 .916.256 1.643.768 2.182.538.538 1.266.808 2.181.808.997 0 1.845-.324 2.545-.97.7-.673 1.118-1.562 1.253-2.666L59.735.929a.76.76 0 01.202-.444.695.695 0 01.445-.162h6.221c.162 0 .283.054.364.162.108.108.148.256.121.444l-2.181 17.857c-.243 2.02-.916 3.797-2.02 5.332-1.078 1.536-2.478 2.72-4.202 3.556-1.697.834-3.609 1.252-5.737 1.252zM22.138 28.603c-.188 0-.337-.054-.444-.162-.081-.108-.108-.256-.081-.444L24.966.929a.76.76 0 01.202-.444c.108-.108.256-.162.445-.162h6.18c.19 0 .324.054.405.162.107.108.148.256.12.444l-2.585 20.927c0 .162.068.242.202.242h12.08c.188 0 .323.054.404.162.107.108.148.256.12.444l-.646 5.293a.665.665 0 01-.242.444c-.108.108-.256.162-.444.162H22.138zM9.898 28.926c-3.07 0-5.494-.7-7.272-2.1C.876 25.397 0 23.471 0 21.047c0-.242.027-.633.08-1.172l.082-.565a.76.76 0 01.202-.445.695.695 0 01.444-.161h6.1c.189 0 .324.054.404.161.108.108.148.256.122.445l-.04.242c-.082.754.215 1.428.888 2.02.7.566 1.697.849 2.99.849 1.05 0 1.804-.243 2.262-.728.458-.484.687-.983.687-1.494 0-.539-.256-.943-.768-1.212-.485-.27-1.347-.593-2.585-.97l-1.091-.364c-2.29-.727-4.215-1.683-5.777-2.868-1.536-1.212-2.303-2.936-2.303-5.171 0-1.885.498-3.555 1.495-5.01 1.023-1.454 2.397-2.585 4.12-3.393C9.063.404 10.975 0 13.05 0c1.885 0 3.569.337 5.05 1.01 1.508.673 2.68 1.643 3.515 2.909.835 1.239 1.252 2.666 1.252 4.282 0 .242-.027.633-.08 1.172l-.041.363a.665.665 0 01-.243.445c-.107.107-.255.161-.444.161h-6.06c-.188 0-.336-.054-.444-.161-.081-.108-.108-.256-.081-.445v-.04c.08-.512-.014-1.01-.283-1.495-.242-.485-.646-.889-1.212-1.212-.538-.323-1.212-.485-2.02-.485-.889 0-1.602.202-2.14.606-.54.377-.809.903-.809 1.576 0 .62.35 1.144 1.05 1.575.728.404 2.088.943 4.08 1.616.216.081 1.038.364 2.465.849 1.454.458 2.666 1.252 3.636 2.383.97 1.105 1.454 2.451 1.454 4.04 0 .216-.026.566-.08 1.05-.35 2.72-1.59 4.862-3.717 6.424-2.128 1.535-4.794 2.303-8 2.303z" fill="#275933"></path></svg></g></g></svg></g><g id="dark-icon"><svg xmlns="http://www.w3.org/2000/svg" version="1.1" xmlns:xlink="http://www.w3.org/1999/xlink" width="1000" height="1000"><g><g transform="matrix(7.407407407407407,0,0,7.407407407407407,0,392.5925925925926)"><svg xmlns="http://www.w3.org/2000/svg" width="135" height="29" fill="none"><path d="M130.547 28.926c-.997 0-1.791-.296-2.384-.889-.592-.62-.889-1.4-.889-2.343 0-1.266.404-2.303 1.212-3.11.808-.836 1.805-1.253 2.99-1.253.969 0 1.75.296 2.343.889.593.592.889 1.36.889 2.302 0 1.24-.404 2.29-1.212 3.152-.808.834-1.791 1.252-2.949 1.252zM115.468 28.522a.546.546 0 01-.404-.162c-.081-.107-.108-.256-.081-.444l1.091-8.888c0-.162-.014-.27-.041-.323L110.256 1.05a.563.563 0 01-.04-.242c0-.323.175-.485.525-.485h6.747c.35 0 .565.162.646.485l2.505 9.575c.054.107.107.161.161.161.081 0 .135-.054.162-.161L125.81.808c.161-.323.417-.485.767-.485h6.788c.323 0 .484.121.484.364 0 .108-.04.229-.121.363l-10.221 17.655c-.081.161-.121.27-.121.323l-1.091 8.888a.668.668 0 01-.242.444.55.55 0 01-.404.162h-6.181zM102.855.323c2.559 0 4.578.714 6.06 2.141 1.481 1.4 2.222 3.313 2.222 5.737 0 .62-.027 1.09-.081 1.414-.216 1.804-.822 3.393-1.818 4.767-.97 1.374-2.235 2.438-3.798 3.192-1.535.754-3.258 1.13-5.171 1.13h-4.12c-.135 0-.23.082-.283.243l-1.091 9.05a.665.665 0 01-.242.444c-.108.108-.256.162-.445.162h-6.18c-.19 0-.338-.054-.445-.162-.081-.108-.108-.256-.081-.444L90.735.929a.76.76 0 01.202-.444c.108-.108.256-.162.445-.162h11.473zm-2.707 12.322c1.024 0 1.872-.296 2.545-.889.701-.62 1.051-1.414 1.051-2.383 0-.781-.27-1.4-.808-1.859-.512-.458-1.212-.687-2.101-.687h-3.232c-.135 0-.229.081-.283.243l-.646 5.332c0 .162.067.243.202.243h3.272zM79.356 28.603c-.324 0-.526-.149-.606-.445l-3.03-10.22c-.054-.135-.149-.203-.283-.203h-1.535c-.135 0-.23.081-.283.243l-1.212 10.019a.665.665 0 01-.243.444c-.107.108-.255.162-.444.162h-6.181c-.189 0-.337-.054-.444-.162-.081-.108-.108-.256-.081-.444L68.367.929a.76.76 0 01.202-.444c.108-.108.256-.162.444-.162h11.878c2.424 0 4.35.687 5.777 2.06 1.427 1.374 2.14 3.232 2.14 5.576 0 .269-.026.727-.08 1.373-.215 1.778-.835 3.34-1.858 4.686a8.76 8.76 0 01-3.838 2.91.243.243 0 00-.162.16.172.172 0 000 .162l3.636 10.625c.027.054.04.135.04.243a.502.502 0 01-.161.363c-.108.081-.256.122-.444.122h-6.585zM75.235 6.827c-.135 0-.23.081-.283.243l-.566 4.646c0 .161.068.242.202.242h3.636c.916 0 1.67-.27 2.263-.808.62-.539.929-1.239.929-2.1 0-.674-.243-1.213-.727-1.617-.458-.404-1.064-.606-1.818-.606h-3.636zM52.948 28.926c-2.935 0-5.265-.781-6.989-2.343-1.724-1.562-2.585-3.677-2.585-6.343 0-.323.027-.808.08-1.454L45.677.929a.76.76 0 01.202-.444c.108-.108.256-.162.445-.162h6.18c.19 0 .324.054.405.162.108.108.148.256.121.444l-2.182 17.857c-.026.134-.04.35-.04.646 0 .916.256 1.643.768 2.182.538.538 1.266.808 2.181.808.997 0 1.845-.324 2.545-.97.7-.673 1.118-1.562 1.253-2.666L59.735.929a.76.76 0 01.202-.444.695.695 0 01.445-.162h6.221c.162 0 .283.054.364.162.108.108.148.256.121.444l-2.181 17.857c-.243 2.02-.916 3.797-2.02 5.332-1.078 1.536-2.478 2.72-4.202 3.556-1.697.834-3.609 1.252-5.737 1.252zM22.138 28.603c-.188 0-.337-.054-.444-.162-.081-.108-.108-.256-.081-.444L24.966.929a.76.76 0 01.202-.444c.108-.108.256-.162.445-.162h6.18c.19 0 .324.054.405.162.107.108.148.256.12.444l-2.585 20.927c0 .162.068.242.202.242h12.08c.188 0 .323.054.404.162.107.108.148.256.12.444l-.646 5.293a.665.665 0 01-.242.444c-.108.108-.256.162-.444.162H22.138zM9.898 28.926c-3.07 0-5.494-.7-7.272-2.1C.876 25.397 0 23.471 0 21.047c0-.242.027-.633.08-1.172l.082-.565a.76.76 0 01.202-.445.695.695 0 01.444-.161h6.1c.189 0 .324.054.404.161.108.108.148.256.122.445l-.04.242c-.082.754.215 1.428.888 2.02.7.566 1.697.849 2.99.849 1.05 0 1.804-.243 2.262-.728.458-.484.687-.983.687-1.494 0-.539-.256-.943-.768-1.212-.485-.27-1.347-.593-2.585-.97l-1.091-.364c-2.29-.727-4.215-1.683-5.777-2.868-1.536-1.212-2.303-2.936-2.303-5.171 0-1.885.498-3.555 1.495-5.01 1.023-1.454 2.397-2.585 4.12-3.393C9.063.404 10.975 0 13.05 0c1.885 0 3.569.337 5.05 1.01 1.508.673 2.68 1.643 3.515 2.909.835 1.239 1.252 2.666 1.252 4.282 0 .242-.027.633-.08 1.172l-.041.363a.665.665 0 01-.243.445c-.107.107-.255.161-.444.161h-6.06c-.188 0-.336-.054-.444-.161-.081-.108-.108-.256-.081-.445v-.04c.08-.512-.014-1.01-.283-1.495-.242-.485-.646-.889-1.212-1.212-.538-.323-1.212-.485-2.02-.485-.889 0-1.602.202-2.14.606-.54.377-.809.903-.809 1.576 0 .62.35 1.144 1.05 1.575.728.404 2.088.943 4.08 1.616.216.081 1.038.364 2.465.849 1.454.458 2.666 1.252 3.636 2.383.97 1.105 1.454 2.451 1.454 4.04 0 .216-.026.566-.08 1.05-.35 2.72-1.59 4.862-3.717 6.424-2.128 1.535-4.794 2.303-8 2.303z" fill="#FEF7E7"></path></svg></g></g></svg></g></svg>