<svg width="160" height="160" fill="none" xmlns="http://www.w3.org/2000/svg"><path d="M0 40h40v40H0V40z" fill="#FEF7E7"/><path d="M0 0h40v40H0V0zM0 80h40v40H0V80zM40 80h40v40H40V80z" fill="#275933"/><path d="M80 40h40v40H80V40zM40 0h40v40H40V0zM120 0h40v40h-40V0zM40 80h40v40H40V80zM120 80h40v40h-40V80zM0 120h40v40H0v-40zM80 120h40v40H80v-40z" fill="#FEF7E7"/><path d="M40 120h40v40H40v-40zM40 40h40v40H40V40zM80 0h40v40H80V0zM80 80h40v40H80V80zM120 120h40v40h-40v-40zM120 40h40v40h-40V40z" fill="#275933"/></svg>