<svg width="1440" height="107" fill="none" xmlns="http://www.w3.org/2000/svg"><path d="M1442.77 77.323l6.23 9.934-18.87 11.847c-15.46 9.702-35.12 9.685-50.57.04-7.82-4.878-17.76-4.872-25.53.008-15.43 9.682-35.06 9.624-50.46.017-7.83-4.887-17.8-4.887-25.56-.017-15.42 9.682-35.06 9.623-50.46.017-7.83-4.887-17.8-4.888-25.56-.017a47.46 47.46 0 01-29.58 7.066 47.65 47.65 0 01-21.35-7.074c-7.82-4.878-17.75-4.872-25.53.008-15.42 9.682-35.06 9.624-50.45.017-7.83-4.887-17.8-4.888-25.57-.017-15.42 9.682-35.06 9.624-50.451.017-7.83-4.887-17.804-4.888-25.565-.017a47.441 47.441 0 01-27.246 7.221 47.689 47.689 0 01-24.551-7.229c-7.815-4.878-17.751-4.872-25.526.008-15.424 9.682-35.064 9.624-50.456.017-7.83-4.887-17.803-4.887-25.564-.017-15.424 9.682-35.064 9.623-50.456.017-7.83-4.887-17.804-4.888-25.564-.017a47.46 47.46 0 01-29.578 7.066 47.673 47.673 0 01-21.351-7.074c-7.816-4.878-17.751-4.872-25.526.008-15.425 9.682-35.064 9.624-50.456.017-7.83-4.887-17.803-4.888-25.564-.017-15.424 9.682-35.064 9.624-50.456.017-6.878-4.293-15.412-4.816-22.645-1.577l-2.409 1.513a47.503 47.503 0 01-21.511 7.122 47.45 47.45 0 01-29.378-7.01l-2.621-1.636c-7.262-3.24-15.758-2.715-22.586 1.571-15.425 9.682-35.064 9.624-50.456.017-7.83-4.887-17.803-4.888-25.564-.017-15.424 9.682-35.064 9.624-50.456.017-7.83-4.887-17.804-4.888-25.564-.017a47.458 47.458 0 01-29.575 7.066 47.669 47.669 0 01-21.354-7.074c-7.816-4.878-17.751-4.872-25.526.008-15.425 9.682-35.065 9.624-50.456.017-7.83-4.887-17.803-4.888-25.564-.017-15.424 9.682-35.064 9.624-50.456.017-7.83-4.887-17.804-4.888-25.564-.017a47.477 47.477 0 01-50.38.065l-15.59-9.73h-1.679v-1.05L-10 87.273l1.866-2.99V0H1442.77v77.323z" fill="#275933"/></svg>